<?xml version="1.0" encoding="UTF-8"?> <svg xmlns="http://www.w3.org/2000/svg" id="Guides" viewBox="0 0 345.48 44.74"><defs><style>.cls-1{fill:#256093;}</style></defs><path class="cls-1" d="M32.74,13.05H20.42a2.93,2.93,0,0,0-1.58.43,2.09,2.09,0,0,0-.68,1.15l-.3,1.24c-.2.8,0,1.29.59,1.48l.73,0h13.3c5.76,0,5.76.65,4.24,7.89L35.93,29c-1.26,5.64-3.78,6.68-7.83,6.68H4.37A22.37,22.37,0,0,0,42.69,13H33.91c-.44,0-.83,0-1.17,0"></path><path class="cls-1" d="M9.35,31.74c.44,0,.83,0,1.17,0H22.84a2.79,2.79,0,0,0,1.57-.43,1.92,1.92,0,0,0,.68-1.15l.31-1.24c.27-1.07-.16-1.58-1.36-1.58H11.94q-4.17,0-5.21-2.27l0-.08a6.9,6.9,0,0,1-.21-5l1-4C8.72,11,11.92,9.09,16,9.09H40.22a18.64,18.64,0,0,0-1.36-1.84A22.37,22.37,0,0,0,1.64,30.77a8,8,0,0,0,.58,1Z"></path><path class="cls-1" d="M64.81,23.75l1-4.21c.26-1.1.06-1.49-.93-1.49H58.3c-1,0-1.39.39-1.65,1.49l-1,4.21ZM54.83,27l-.9,3.69c-.27,1.1-.07,1.49.92,1.49h13a13.44,13.44,0,0,0,2.43-.26l-1.46,3.51H50.37c-3.44,0-4.65-1.71-3.72-5.53L49,20.33c.94-3.82,3-5.53,6.42-5.53h14c3.43,0,4.64,1.71,3.71,5.53L71.49,27Z"></path><path class="cls-1" d="M84.93,14.8l-.34,2.1h.09c.91-1.62,1.58-2.1,2.83-2.1H96.7c3.43,0,4.65,1.71,3.71,5.53L97.87,30.78a18,18,0,0,0-.71,4.65H88.83a19.9,19.9,0,0,0,1.57-4.65l2.74-11.24c.26-1.1.06-1.49-.93-1.49H85.86c-1,0-1.39.39-1.65,1.49L81.47,30.78a18,18,0,0,0-.71,4.65H72.43A19.9,19.9,0,0,0,74,30.78l2.76-11.33a17.8,17.8,0,0,0,.7-4.65Z"></path><path class="cls-1" d="M124,30.82c-.75,3.08-2.84,4.61-6.28,4.61H100.59l.31-3.55c1.11.39,2,.48,4.78.48h9.1A1.84,1.84,0,0,0,116.7,31l.28-1.14c.2-.84-.27-1.36-1.26-1.36h-9.48c-3.1,0-4.16-1.8-3.23-5.63l.61-2.5c.93-3.82,2.86-5.57,5.95-5.57h17.82l-.31,3.55c-1.11-.39-2-.48-4.78-.48h-9.44a1.48,1.48,0,0,0-1.63,1.23l-.24,1c-.2.83.13,1.22,1,1.22h9.19q5.16,0,4,4.61Z"></path><path class="cls-1" d="M141.78,32.18c1,0,1.38-.39,1.65-1.49l2.72-11.15c.27-1.1.06-1.49-.92-1.49h-6.62c-1,0-1.38.39-1.65,1.49l-2.72,11.15c-.26,1.1-.06,1.49.93,1.49Zm-11.09,3.25c-3.44,0-4.65-1.71-3.72-5.53l2.33-9.57c.93-3.82,3-5.53,6.41-5.53h14c3.44,0,4.65,1.71,3.72,5.53L151.1,29.9c-.94,3.82-3,5.53-6.42,5.53Z"></path><path class="cls-1" d="M171.59,22.79c3.86,0,4.93,1.23,3.93,5.36l-.92,3.77c-.56,2.28-2.1,3.51-5.71,3.51H152.83l.29-2.41a15.11,15.11,0,0,0,4.2.39h11.81c1.5,0,2-.44,2.4-2.28l.6-2.46c.45-1.84.21-2.28-1.29-2.28H159.93c-3.86,0-4.94-1.23-3.93-5.36l.22-.88c1-4.12,2.68-5.35,6.54-5.35h15.63l-.21,2.41a15.38,15.38,0,0,0-4.19-.39H162.48c-1.5,0-1.95.44-2.4,2.28l-.34,1.41c-.45,1.84-.22,2.28,1.29,2.28Z"></path><path class="cls-1" d="M181.62,31.13c-.45,1.84-.22,2.28,1.28,2.28h10.87a17.36,17.36,0,0,0,4.39-.39l-.89,2.41H182.2c-3.87,0-4.94-1.23-3.93-5.35l2.42-9.93c1-4.12,2.67-5.35,6.54-5.35H202l-.41,2.41a15.46,15.46,0,0,0-4.2-.39H187c-1.5,0-1.95.44-2.4,2.28Z"></path><path class="cls-1" d="M207.08,9.27h3.6l-.73,3h-3.6ZM205.38,31a17.43,17.43,0,0,0-.69,4.39h-4.38A20,20,0,0,0,201.77,31l2.89-11.85a17.8,17.8,0,0,0,.68-4.39h4Z"></path><path class="cls-1" d="M230,24.37l1.29-5.27c.44-1.84.21-2.28-1.29-2.28H218.29c-1.51,0-2,.44-2.41,2.28l-1.28,5.27Zm-15.9,2L213,31.13c-.45,1.84-.21,2.28,1.29,2.28h12.88a17.78,17.78,0,0,0,4.39-.39l-1,2.41h-17c-3.86,0-4.93-1.23-3.93-5.35L212,20.15c1-4.12,2.68-5.35,6.54-5.35h12.15c3.87,0,4.94,1.23,3.94,5.35l-1.52,6.24Z"></path><path class="cls-1" d="M238.18,19.19a17.9,17.9,0,0,0,.69-4.39H243l-.36,1.49h.08a5.61,5.61,0,0,1,1.36-1.14,2.4,2.4,0,0,1,1.24-.35h11.12c3.86,0,4.94,1.23,3.93,5.35L257.75,31a17.9,17.9,0,0,0-.69,4.39h-4.38A20,20,0,0,0,254.14,31l2.91-11.94c.45-1.84.22-2.28-1.29-2.28H244.21c-1.5,0-2,.44-2.4,2.28L238.9,31a17.8,17.8,0,0,0-.68,4.39h-4.38A20.51,20.51,0,0,0,235.3,31Z"></path><path class="cls-1" d="M270.74,16.82l-3.48,14.31c-.45,1.84-.22,2.28,1.28,2.28h4.94a17.31,17.31,0,0,0,4.39-.39L277,35.43h-9.14c-3.87,0-4.94-1.23-3.94-5.35l3.24-13.26H264l.5-2h3.13l1-4.08L272.4,10l-1.16,4.79h10l-.49,2Z"></path><path class="cls-1" d="M286.58,9.27h3.6l-.72,3h-3.61ZM284.87,31a17.8,17.8,0,0,0-.68,4.39h-4.38A20,20,0,0,0,281.27,31l2.89-11.85a17.8,17.8,0,0,0,.68-4.39h4Z"></path><path class="cls-1" d="M308.9,16.82H298.69L295.22,31a17.33,17.33,0,0,0-.68,4.39h-4.38A20,20,0,0,0,291.61,31l3.47-14.22h-3.26l.49-2h3.26l.52-2.11c1-4.13,2.68-5.36,6.54-5.36h9.23l-.24,2.42a15,15,0,0,0-4.2-.4h-5.07c-1.5,0-2,.44-2.4,2.29l-.77,3.16H309.4Z"></path><path class="cls-1" d="M312.8,9.27h3.61l-.73,3h-3.6ZM311.1,31a17.8,17.8,0,0,0-.68,4.39H306A20,20,0,0,0,307.5,31l2.89-11.85a17.8,17.8,0,0,0,.68-4.39h4Z"></path><path class="cls-1" d="M319.15,31.13c-.45,1.84-.21,2.28,1.29,2.28H331.3a17.26,17.26,0,0,0,4.39-.39l-.89,2.41H319.73c-3.86,0-4.93-1.23-3.93-5.35l2.42-9.93c1-4.12,2.68-5.35,6.54-5.35h14.77l-.41,2.41a15.5,15.5,0,0,0-4.2-.39H324.49c-1.5,0-2,.44-2.41,2.28Z"></path><path class="cls-1" d="M341.76,31.58c.4,0,.65-.09.65-.54s-.48-.44-.8-.44H341v1ZM341,34h-.88V29.9h1.53c1.06,0,1.68.3,1.68,1.23,0,.76-.44,1-1.13,1.09L343.25,34h-.9l-1-1.71H341Zm.63-4.87a2.84,2.84,0,1,0,2.7,2.84,2.69,2.69,0,0,0-2.7-2.84M337.76,32a3.86,3.86,0,1,1,3.86,3.72A3.69,3.69,0,0,1,337.76,32"></path></svg> 